<svg width="560" height="360" viewBox="0 0 560 360" fill="none" xmlns="http://www.w3.org/2000/svg">
<rect width="560" height="360" fill="#A69DFF"/>
<rect x="280" width="280" height="180" fill="#FBE29F"/>
<rect y="180" width="280" height="180" fill="#C6D68F"/>
<rect x="162.4" y="106.615" width="280" height="180" rx="16" fill="#EA8783"/>
<path fill-rule="evenodd" clip-rule="evenodd" d="M272.781 162.099C268.215 162.099 264.513 165.885 264.513 170.555V221.291C264.513 225.961 268.215 229.747 272.781 229.747H333.419C337.985 229.747 341.688 225.961 341.688 221.291V170.555C341.688 165.885 337.985 162.099 333.419 162.099H272.781ZM259 170.555C259 162.771 265.17 156.462 272.781 156.462H333.419C341.03 156.462 347.2 162.771 347.2 170.555V221.291C347.2 229.075 341.03 235.385 333.419 235.385H272.781C265.17 235.385 259 229.075 259 221.291V170.555Z" fill="white"/>
<path fill-rule="evenodd" clip-rule="evenodd" d="M303.1 176.192C292.444 176.192 283.806 185.026 283.806 195.923C283.806 206.82 292.444 215.654 303.1 215.654C313.756 215.654 322.394 206.82 322.394 195.923C322.394 185.026 313.756 176.192 303.1 176.192ZM278.294 195.923C278.294 181.913 289.4 170.555 303.1 170.555C316.8 170.555 327.906 181.913 327.906 195.923C327.906 209.933 316.8 221.291 303.1 221.291C289.4 221.291 278.294 209.933 278.294 195.923Z" fill="white"/>
<path fill-rule="evenodd" clip-rule="evenodd" d="M303.1 190.286C301.638 190.286 300.236 190.88 299.202 191.937C298.168 192.994 297.587 194.428 297.587 195.923C297.587 197.48 296.353 198.742 294.831 198.742C293.309 198.742 292.075 197.48 292.075 195.923C292.075 192.933 293.237 190.065 295.304 187.951C297.372 185.836 300.176 184.648 303.1 184.648C304.622 184.648 305.856 185.91 305.856 187.467C305.856 189.024 304.622 190.286 303.1 190.286Z" fill="white"/>
<path d="M330.663 176.192C332.185 176.192 333.419 174.93 333.419 173.374C333.419 171.817 332.185 170.555 330.663 170.555C329.14 170.555 327.906 171.817 327.906 173.374C327.906 174.93 329.14 176.192 330.663 176.192Z" fill="white"/>
<path fill-rule="evenodd" clip-rule="evenodd" d="M451.421 104.019C451.421 102.585 452.599 101.423 454.053 101.423H511.947C513.401 101.423 514.579 102.585 514.579 104.019C514.579 105.453 513.401 106.615 511.947 106.615H454.053C452.599 106.615 451.421 105.453 451.421 104.019Z" fill="white"/>
<path fill-rule="evenodd" clip-rule="evenodd" d="M483.105 57.2884C478.745 57.2884 475.211 60.7755 475.211 65.0769C475.211 69.3783 478.745 72.8654 483.105 72.8654C487.465 72.8654 491 69.3783 491 65.0769C491 60.7755 487.465 57.2884 483.105 57.2884ZM469.947 65.0769C469.947 57.9078 475.838 52.0961 483.105 52.0961C490.372 52.0961 496.263 57.9078 496.263 65.0769C496.263 72.246 490.372 78.0577 483.105 78.0577C475.838 78.0577 469.947 72.246 469.947 65.0769Z" fill="white"/>
<path d="M501.421 49.5C502.875 49.5 504.053 48.3376 504.053 46.9038C504.053 45.47 502.875 44.3077 501.421 44.3077C499.968 44.3077 498.79 45.47 498.79 46.9038C498.79 48.3376 499.968 49.5 501.421 49.5Z" fill="white"/>
<path fill-rule="evenodd" clip-rule="evenodd" d="M483 28.7308C462.711 28.7308 446.263 44.957 446.263 64.9731C446.263 84.9891 462.711 101.215 483 101.215C503.289 101.215 519.737 84.9891 519.737 64.9731C519.737 44.957 503.289 28.7308 483 28.7308ZM441 64.9731C441 42.0894 459.804 23.5385 483 23.5385C506.196 23.5385 525 42.0894 525 64.9731C525 87.8568 506.196 106.408 483 106.408C459.804 106.408 441 87.8568 441 64.9731Z" fill="white"/>
<path fill-rule="evenodd" clip-rule="evenodd" d="M39.8125 291.323C38.4111 291.323 37.275 292.377 37.275 293.677V326.631C37.275 327.931 38.4111 328.985 39.8125 328.985H85.4875C86.8889 328.985 88.025 327.931 88.025 326.631V293.677C88.025 292.377 86.8889 291.323 85.4875 291.323H39.8125ZM32.2 293.677C32.2 289.777 35.6082 286.615 39.8125 286.615H85.4875C89.6918 286.615 93.1 289.777 93.1 293.677V326.631C93.1 330.531 89.6918 333.692 85.4875 333.692H39.8125C35.6082 333.692 32.2 330.531 32.2 326.631V293.677Z" fill="white"/>
<path fill-rule="evenodd" clip-rule="evenodd" d="M106.65 299.869L93.1 304.708V313.246L106.65 318.085C106.863 318.147 107.147 318.136 107.516 317.806C107.926 317.44 108.325 316.73 108.325 315.756V302.198C108.325 301.223 107.926 300.514 107.516 300.147C107.147 299.817 106.863 299.807 106.65 299.869ZM111.037 296.757C112.53 298.091 113.4 300.065 113.4 302.198V315.756C113.4 317.889 112.53 319.863 111.037 321.197C109.518 322.555 107.271 323.275 104.949 322.521L104.912 322.509L88.025 316.478V301.476L104.912 295.445L104.949 295.433C107.271 294.679 109.518 295.399 111.037 296.757Z" fill="white"/>
<path fill-rule="evenodd" clip-rule="evenodd" d="M57.575 303.092C57.575 301.792 58.7111 300.738 60.1125 300.738H75.3375C76.7389 300.738 77.875 301.792 77.875 303.092C77.875 304.392 76.7389 305.446 75.3375 305.446H60.1125C58.7111 305.446 57.575 304.392 57.575 303.092Z" fill="white"/>
</svg>
